<svg width="24" height="32" viewBox="0 0 24 32" fill="none" xmlns="http://www.w3.org/2000/svg">
<path fill-rule="evenodd" clip-rule="evenodd" d="M12 31.2349C12 31.2349 20.1445 21.1459 21.6039 19.2482C23.1085 17.2916 24 14.8602 24 12.2256C24 5.75797 18.6274 0.514893 12 0.514893C5.37259 0.514893 0 5.75797 0 12.2256C0 14.8615 0.89235 17.294 2.39835 19.2511C3.85785 21.1477 12 31.2349 12 31.2349Z" fill="#FAD13E"/>
<path d="M12.2509 19.7809C14.9509 19.7809 16.5529 17.9449 16.5529 15.7849C16.5529 13.4449 14.8249 12.2569 13.0069 11.9149L12.0889 11.7529C11.1169 11.5549 10.5949 10.9609 10.5949 10.1869C10.5949 9.28689 11.2429 8.60289 12.3409 8.60289C13.1869 8.60289 13.8709 9.10689 14.2129 9.89889C14.2669 10.0249 14.3569 10.0609 14.4829 10.0069L16.1569 9.34089C16.2829 9.28689 16.3369 9.19689 16.2829 9.07089C15.6349 7.54089 14.2309 6.51489 12.3589 6.51489C9.89285 6.51489 8.29085 8.26089 8.29085 10.2589C8.29085 12.2929 9.62285 13.6429 11.5849 14.0029L12.4849 14.1649C13.6009 14.3809 14.2309 14.9209 14.2309 15.9469C14.2309 16.9189 13.5469 17.6029 12.2509 17.6029C11.2249 17.6029 10.4149 17.0989 10.0909 16.1089C10.0549 15.9829 9.94685 15.9289 9.82085 15.9829L8.14685 16.6669C8.02085 16.7209 7.96685 16.8109 8.02085 16.9369C8.68685 18.7009 10.2709 19.7809 12.2509 19.7809Z" fill="black"/>
</svg>
