<svg width="20" height="26" viewBox="0 0 20 26" fill="none" xmlns="http://www.w3.org/2000/svg">
<path fill-rule="evenodd" clip-rule="evenodd" d="M10 25.6C10 25.6 16.7871 17.1925 18.0032 15.6111C19.2571 13.9806 20 11.9544 20 9.75894C20 4.36923 15.5228 0 10 0C4.47716 0 0 4.36923 0 9.75894C0 11.9555 0.743625 13.9826 1.99862 15.6135C3.21487 17.194 10 25.6 10 25.6Z" fill="#FAD13E"/>
<path d="M10.605 5.83334H7.68C7.575 5.83334 7.5 5.90834 7.5 6.01334V16.1533C7.5 16.2583 7.575 16.3333 7.68 16.3333H9.15C9.255 16.3333 9.33 16.2583 9.33 16.1533V13.5733C9.33 13.5133 9.36 13.4833 9.42 13.4833H10.605C12.99 13.4833 14.595 11.9833 14.595 9.65834C14.595 7.33334 12.99 5.83334 10.605 5.83334ZM9.33 11.6533V7.66334C9.33 7.60334 9.375 7.57334 9.42 7.57334H10.455C11.895 7.57334 12.675 8.33834 12.675 9.65834C12.675 10.9783 11.895 11.7433 10.455 11.7433H9.42C9.36 11.7433 9.33 11.7133 9.33 11.6533Z" fill="black"/>
</svg>
