<svg width="24" height="28" viewBox="0 0 24 28" fill="none" xmlns="http://www.w3.org/2000/svg">
<path fill-rule="evenodd" clip-rule="evenodd" d="M0 11.0178C0 5.03155 5.38286 0.16069 12 0.16069C18.6171 0.16069 24 5.03155 24 11.0178C24 17.5847 15.6571 25.0567 13.0983 27.1915C12.4625 27.7216 11.5387 27.7216 10.9029 27.1915C8.34286 25.0578 0 17.587 0 11.0178ZM11.6926 4.82126L5.40686 8.82126C5.19223 8.95765 5.09356 9.21947 5.16479 9.46359C5.23601 9.70772 5.45999 9.87539 5.71429 9.87497H18.2857C18.54 9.87539 18.764 9.70772 18.8352 9.46359C18.9065 9.21947 18.8078 8.95765 18.5932 8.82126L12.3074 4.82126C12.1199 4.7016 11.8801 4.7016 11.6926 4.82126ZM17.1428 11.5892V15.0178C17.1428 15.3334 16.887 15.5892 16.5714 15.5892H15.4286C15.113 15.5892 14.8571 15.3334 14.8571 15.0178V11.5892C14.8571 11.2736 15.113 11.0178 15.4286 11.0178H16.5714C16.887 11.0178 17.1428 11.2736 17.1428 11.5892ZM13.1428 15.0178V11.5892C13.1428 11.2736 12.887 11.0178 12.5714 11.0178H11.4285C11.113 11.0178 10.8571 11.2736 10.8571 11.5892V15.0178C10.8571 15.3334 11.113 15.5892 11.4285 15.5892H12.5714C12.887 15.5892 13.1428 15.3334 13.1428 15.0178ZM9.14287 11.5892V15.0178C9.14287 15.3334 8.88704 15.5892 8.57145 15.5892H7.42859C7.113 15.5892 6.85716 15.3334 6.85716 15.0178V11.5892C6.85716 11.2736 7.113 11.0178 7.42859 11.0178H8.57145C8.88704 11.0178 9.14287 11.2736 9.14287 11.5892ZM6.00003 18.4464H18C18.4734 18.4464 18.8572 18.0626 18.8572 17.5892C18.8572 17.1159 18.4734 16.7321 18 16.7321H6.00003C5.52664 16.7321 5.14289 17.1159 5.14289 17.5892C5.14289 18.0626 5.52664 18.4464 6.00003 18.4464Z" fill="#246EF0"/>
</svg>
