<svg width="47" height="37" viewBox="0 0 47 37" fill="none" xmlns="http://www.w3.org/2000/svg">
<path d="M2.91806 15.1125C2.72283 15.1125 2.57642 14.9662 2.57642 14.7833C2.57642 14.6003 2.72283 14.454 2.91806 14.454C3.05228 14.454 8.72606 14.454 8.87248 14.454C9.05551 14.454 9.20193 14.6003 9.20193 14.7833C9.20193 14.9662 9.05551 15.1125 8.87248 15.1125C8.72606 15.1125 3.05228 15.1125 2.91806 15.1125Z" fill="#326295"/>
<path d="M1.06345 16.8199C0.86822 16.8199 0.721802 16.6736 0.721802 16.4906C0.721802 16.3077 0.86822 16.1492 1.06345 16.1492H10.6052V14.7223L9.92187 14.1491C9.89746 14.1165 9.87713 14.084 9.86086 14.0515C9.83646 14.0027 9.82832 13.9499 9.83646 13.893V11.8319C9.82426 11.7343 9.86086 11.6489 9.93407 11.5758V11.5636L11.0078 10.844V8.86833C10.9346 8.85613 10.8492 8.83174 10.7882 8.77076C10.715 8.68539 10.6784 8.58783 10.6906 8.49026V6.55114C10.6784 6.45358 10.715 6.35601 10.7882 6.29504C10.8492 6.22186 10.9346 6.19747 11.02 6.18527H11.7399L12.9723 0.770378V0.745989C12.9804 0.721598 12.9926 0.697206 13.0089 0.672814C13.017 0.648423 13.0333 0.624031 13.0577 0.599639C13.1187 0.538661 13.2041 0.502075 13.2895 0.502075C13.4482 0.502075 13.5702 0.599641 13.619 0.745989V0.770378L14.8513 6.18527H15.5712C15.6567 6.19747 15.7421 6.22186 15.8031 6.29504C15.8763 6.35601 15.9129 6.45358 15.9007 6.55114V8.49026C15.9129 8.58783 15.8763 8.68539 15.8031 8.77076C15.7421 8.83174 15.6567 8.85613 15.5834 8.86833V10.844L16.3033 11.3319L16.3155 11.3441L16.6206 11.5392L16.6572 11.5636C16.7792 11.6733 16.8036 11.8685 16.706 12.0026C16.6084 12.1612 16.401 12.1978 16.2423 12.1002L16.0715 11.9782L15.0954 11.3319C15.0466 11.3075 15.0059 11.2709 14.9734 11.2221C14.9368 11.1611 14.9124 11.1001 14.9124 11.0392V8.53904V8.52685C14.9124 8.44148 14.949 8.35611 15.01 8.29513C15.071 8.23415 15.1442 8.19756 15.2296 8.19756V6.85603H14.6195C14.5219 6.86823 14.4243 6.83164 14.3633 6.75847C14.3226 6.71782 14.2941 6.6731 14.2779 6.62432L14.2657 6.59993L13.2895 2.23386L12.3256 6.59993L12.3134 6.62432C12.2971 6.6731 12.2687 6.71782 12.228 6.75847C12.167 6.83164 12.0694 6.86823 11.9718 6.85603H11.3617V8.19756C11.4471 8.19756 11.5203 8.23415 11.5813 8.29513C11.6423 8.35611 11.6789 8.44148 11.6789 8.52685V8.53904V11.0392C11.6789 11.1001 11.6545 11.1611 11.6179 11.2221C11.5854 11.2709 11.5447 11.3075 11.4959 11.3319L10.5076 11.9904V13.7832L11.1786 14.3442C11.2397 14.4052 11.2763 14.4905 11.2763 14.5759V14.5881V16.4906C11.2763 16.6858 11.1298 16.8199 10.9468 16.8199H1.06345Z" fill="#CE0F69"/>
<path d="M43.8914 15.1125C44.0744 15.1125 44.2208 14.9662 44.2208 14.7833C44.2208 14.6003 44.0744 14.454 43.8914 14.454C43.745 14.454 38.0712 14.454 37.9248 14.454C37.7418 14.454 37.5953 14.6003 37.5953 14.7833C37.5953 14.9662 37.7418 15.1125 37.9248 15.1125C38.0712 15.1125 43.745 15.1125 43.8914 15.1125Z" fill="#CE0F69"/>
<path d="M45.746 16.8199C45.929 16.8199 46.0754 16.6736 46.0754 16.4906C46.0754 16.3077 45.929 16.1492 45.746 16.1492H36.1921V14.7223L36.8754 14.1491C36.8998 14.1165 36.9201 14.084 36.9364 14.0515C36.9608 14.0027 36.9689 13.9499 36.9608 13.893V11.8319C36.973 11.7343 36.9364 11.6489 36.8632 11.5758L36.851 11.5636L35.7894 10.844V8.86833C35.8626 8.85613 35.948 8.83174 36.009 8.77076C36.0823 8.68539 36.1189 8.58783 36.1067 8.49026V6.55114C36.1189 6.45358 36.0823 6.35601 36.009 6.29504C35.948 6.22186 35.8626 6.19747 35.7772 6.18527H35.0695L33.8249 0.770378V0.745989C33.8168 0.721598 33.8046 0.697206 33.7883 0.672814C33.7802 0.648423 33.7639 0.624031 33.7395 0.599639C33.6785 0.538661 33.5931 0.502075 33.5077 0.502075C33.3491 0.502075 33.2271 0.599641 33.1783 0.745989V0.770378L31.9459 6.18527H31.226C31.1406 6.19747 31.0552 6.22186 30.9942 6.29504C30.9209 6.35601 30.8965 6.45358 30.8965 6.55114V8.49026C30.8843 8.58783 30.9209 8.68539 30.9942 8.77076C31.0552 8.83174 31.1406 8.85613 31.2138 8.86833V10.844L30.4939 11.3319L30.4817 11.3441L30.1766 11.5392L30.1522 11.5636C30.018 11.6733 29.9936 11.8685 30.0912 12.0026C30.1888 12.1612 30.3963 12.1978 30.5549 12.1002L30.7257 11.9782L31.7019 11.3319C31.7507 11.3075 31.7913 11.2709 31.8239 11.2221C31.8605 11.1611 31.8849 11.1001 31.8849 11.0392V8.53904V8.52685C31.8849 8.44148 31.8483 8.35611 31.7873 8.29513C31.7263 8.23415 31.653 8.19756 31.5676 8.19756V6.85603H32.1777C32.2753 6.86823 32.3729 6.83164 32.4462 6.75847C32.4868 6.71782 32.5112 6.6731 32.5194 6.62432L32.5316 6.59993L33.5077 2.23386L34.4716 6.59993L34.4838 6.62432C34.5001 6.6731 34.5286 6.71782 34.5693 6.75847C34.6425 6.83164 34.7279 6.86823 34.8255 6.85603H35.4356V8.19756C35.3624 8.19756 35.2769 8.23415 35.2159 8.29513C35.1549 8.35611 35.1183 8.44148 35.1183 8.52685V8.53904V11.0392C35.1183 11.1001 35.1427 11.1611 35.1793 11.2221C35.2119 11.2709 35.2525 11.3075 35.3014 11.3319L36.2897 11.9904V13.7832L35.6186 14.3442C35.5576 14.4052 35.521 14.4905 35.521 14.5759V14.5881V16.4906C35.521 16.6858 35.6674 16.8199 35.8504 16.8199H45.746Z" fill="#326295"/>
<path d="M17.2429 25.8935V25.5643L16.889 25.235C16.889 25.235 16.767 25.1252 16.7914 24.9423C16.9744 24.1617 17.6821 23.3812 18.8535 23.2471C18.8779 23.2471 18.8982 23.2471 18.9145 23.2471C19.1097 23.2471 19.2561 23.3934 19.2561 23.5764C19.2561 23.7593 19.1097 23.9056 18.9389 23.9178C18.4142 23.991 17.8163 24.2105 17.5113 24.8935L17.8041 25.1862C17.8773 25.2472 17.914 25.3325 17.914 25.4301V26.2228C17.914 26.4058 17.7553 26.5643 17.5723 26.5643C10.1781 26.5643 9.70222 26.5643 9.66562 26.5643C9.48259 26.5643 9.32397 26.4058 9.32397 26.2228V25.4667C9.32397 25.3691 9.36057 25.2838 9.43378 25.2228L9.65342 25.0032C9.32397 24.2105 7.92078 23.93 7.06666 23.9178H5.1998C5.01678 23.9178 4.85815 23.7715 4.85815 23.5764C4.85815 23.3934 5.01678 23.2471 5.1998 23.2471H7.06666H7.10326C9.39718 23.3324 10.2391 24.3081 10.3611 25.0398C10.3855 25.2228 10.2635 25.3325 10.2635 25.3325L9.99506 25.6008V25.8935H15.437H17.2429Z" fill="#CE0F69"/>
<path d="M29.591 25.8935V25.5643L29.9449 25.235C29.9449 25.235 30.0547 25.1252 30.0303 24.9423C29.8595 24.1617 29.1518 23.3812 27.9804 23.2471C27.956 23.2471 27.9316 23.2471 27.9072 23.2471C27.7242 23.2471 27.5778 23.3934 27.5778 23.5764C27.5778 23.7593 27.712 23.9056 27.895 23.9178C28.4075 23.991 29.0176 24.2105 29.3226 24.8935L29.0176 25.1862C28.9566 25.2472 28.9199 25.3325 28.9199 25.4301V26.2228C28.9199 26.4058 29.0664 26.5643 29.2494 26.5643C36.6436 26.5643 37.1317 26.5643 37.1683 26.5643C37.3513 26.5643 37.4977 26.4058 37.4977 26.2228V25.4667C37.4977 25.3691 37.4611 25.2838 37.4001 25.2228L37.1805 25.0032C37.5099 24.2105 38.9009 23.93 39.755 23.9178H41.6341C41.8171 23.9178 41.9635 23.7715 41.9635 23.5764C41.9635 23.3934 41.8171 23.2471 41.6341 23.2471H39.755H39.7184C37.4245 23.3324 36.5948 24.3081 36.4728 25.0398C36.4484 25.2228 36.5582 25.3325 36.5582 25.3325L36.8266 25.6008V25.8935H31.3969H29.591Z" fill="#326295"/>
<path d="M19.0975 29.2717C19.0487 29.2961 18.9959 29.3083 18.9389 29.3083C18.8901 29.3083 18.8413 29.3002 18.7925 29.2839L16.706 28.2839L14.4731 29.3449L12.1182 28.2351C11.9962 28.1863 11.8986 28.0644 11.8986 27.918C11.8986 27.7351 12.045 27.5765 12.2402 27.5765C12.2971 27.5765 12.35 27.5928 12.3988 27.6253L14.4731 28.6376L16.5718 27.6009C16.6043 27.5928 16.6409 27.5847 16.6816 27.5765H16.6938C16.7589 27.5765 16.8158 27.5928 16.8646 27.6253L18.9389 28.6376C21.001 27.6253 21.001 27.6253 21.001 27.6253C21.0091 27.6172 21.0213 27.6091 21.0376 27.6009C21.062 27.5928 21.0864 27.5887 21.1108 27.5887C21.1271 27.5806 21.1474 27.5765 21.1718 27.5765C21.2369 27.5765 21.2939 27.5928 21.3427 27.6253L23.3925 28.6376L25.479 27.6131H25.4912C25.5278 27.5887 25.5522 27.5887 25.5766 27.5887L25.5888 27.5765C25.6132 27.5765 25.6254 27.5765 25.6254 27.5765H25.6621C25.6946 27.5847 25.7271 27.5928 25.7597 27.6009L25.7841 27.6131L27.8584 28.6376L29.9326 27.6253C29.9815 27.5928 30.0343 27.5765 30.0913 27.5765C30.1401 27.5765 30.1848 27.5847 30.2255 27.6009L32.3242 28.6376L34.3985 27.6253C34.4473 27.5928 34.5001 27.5765 34.5571 27.5765C34.7523 27.5765 34.8987 27.7351 34.8987 27.918C34.8987 28.0644 34.8011 28.1863 34.6791 28.2351L32.3242 29.3449L30.1035 28.2839L28.0048 29.2839C27.9641 29.3002 27.9153 29.3083 27.8584 29.3083C27.8096 29.3083 27.7648 29.3002 27.7241 29.2839L25.6254 28.2839L23.5634 29.2717C23.5146 29.2961 23.4576 29.3083 23.3925 29.3083C23.3356 29.3083 23.2827 29.2961 23.2339 29.2717L21.1596 28.2839L19.0975 29.2717Z" fill="#326295"/>
<path d="M19.0975 31.6377C19.0487 31.6621 18.9958 31.6743 18.9389 31.6743C18.8819 31.6743 18.8331 31.6621 18.7924 31.6377L16.6816 30.6377L15.2784 31.3206C15.2377 31.3369 15.197 31.345 15.1563 31.345C14.9611 31.345 14.8147 31.1987 14.8147 31.0157C14.8147 30.8572 14.9123 30.7352 15.0465 30.6986L16.5473 29.9791C16.5961 29.9547 16.649 29.9425 16.706 29.9425C16.7629 29.9425 16.8158 29.9547 16.8646 29.9791L18.9389 31.0035C21.0009 29.9913 21.001 29.9791 21.001 29.9791C21.0091 29.9791 21.0213 29.975 21.0376 29.9669C21.062 29.9588 21.0864 29.9506 21.1108 29.9425C21.1352 29.9425 21.1555 29.9425 21.1718 29.9425C21.2368 29.9425 21.2938 29.9588 21.3426 29.9913L23.4047 31.0035C25.479 29.9791 25.479 29.9791 25.479 29.9791L25.4912 29.9669C25.5278 29.9547 25.5522 29.9425 25.5766 29.9425H25.5888C25.6132 29.9425 25.6254 29.9425 25.6254 29.9425H25.662C25.6945 29.9425 25.7271 29.9506 25.7596 29.9669L25.784 29.9791L27.8705 31.0035L29.9326 29.9791C29.9814 29.9547 30.0343 29.9425 30.0912 29.9425C30.1563 29.9425 30.2173 29.9588 30.2742 29.9913L31.7506 30.6986C31.8848 30.7352 31.9825 30.8572 31.9825 31.0157C31.9825 31.1987 31.836 31.345 31.6408 31.345C31.6001 31.345 31.5595 31.3369 31.5188 31.3206L30.1156 30.6377L28.0047 31.6377C27.964 31.6621 27.9193 31.6743 27.8705 31.6743C27.8136 31.6743 27.7647 31.6621 27.7241 31.6377L25.6376 30.6377L23.5633 31.6377C23.5145 31.6621 23.4616 31.6743 23.4047 31.6743C23.3477 31.6743 23.2989 31.6621 23.2583 31.6377L21.1718 30.6499L19.0975 31.6377Z" fill="#CE0F69"/>
<path d="M25.5034 34.65C25.5441 34.6337 25.5889 34.6256 25.6377 34.6256C25.8207 34.6256 25.9671 34.772 25.9671 34.9549C25.9671 35.1134 25.8695 35.2354 25.7353 35.2842L23.539 36.3208C23.4983 36.3452 23.4536 36.3574 23.4048 36.3574C23.3478 36.3574 23.299 36.3452 23.2583 36.3208L21.0498 35.272C20.9278 35.2232 20.8302 35.1012 20.8302 34.9549C20.8302 34.772 20.9766 34.6256 21.1718 34.6256C21.2288 34.6256 21.2817 34.6378 21.3305 34.6622L23.4048 35.6866L25.5034 34.65Z" fill="#CE0F69"/>
<path d="M19.0976 33.9793C19.0487 34.0037 18.9959 34.0158 18.9389 34.0158C18.882 34.0158 18.8332 34.0037 18.7925 33.9793L16.584 32.9304C16.462 32.8816 16.3644 32.7597 16.3644 32.6133C16.3644 32.4304 16.523 32.2841 16.706 32.2841C16.763 32.2841 16.8158 32.2963 16.8646 32.3206L18.9389 33.3451C21.001 32.3328 21.001 32.3328 21.001 32.3328C21.0092 32.3247 21.0214 32.3166 21.0376 32.3085C21.062 32.3003 21.0864 32.2922 21.1108 32.2841C21.1271 32.2841 21.1474 32.2841 21.1718 32.2841C21.2369 32.2841 21.2939 32.3003 21.3427 32.3328L23.3925 33.3451L25.479 32.3206L25.4912 32.3085C25.5156 32.3003 25.54 32.2922 25.5644 32.2841C25.5482 32.2922 25.536 32.2963 25.5278 32.2963L25.5034 32.3085C25.5116 32.3003 25.5197 32.2963 25.5278 32.2963C25.5441 32.2881 25.5604 32.2841 25.5766 32.2841H25.6011C25.6092 32.2841 25.6173 32.2841 25.6255 32.2841H25.6621C25.6946 32.2841 25.7271 32.2922 25.7597 32.3085L25.7841 32.3206L27.8584 33.3451L29.9327 32.3206C29.9815 32.2963 30.0343 32.2841 30.0913 32.2841C30.2865 32.2841 30.4329 32.4304 30.4329 32.6133C30.4329 32.7597 30.3353 32.8816 30.2133 32.9304L28.0048 33.9793C27.9641 34.0037 27.9153 34.0158 27.8584 34.0158C27.8096 34.0158 27.7607 34.0037 27.7119 33.9793L25.6255 32.9914L23.5634 33.9671C23.5146 33.9996 23.4617 34.0158 23.4048 34.0158C23.3478 34.0158 23.299 34.0037 23.2583 33.9793L21.1596 32.9914L19.0976 33.9793Z" fill="#326295"/>
<path d="M27.7241 20.3933V20.125C27.7241 20.1006 27.7119 20.0762 27.6875 20.0762H26.8944C26.87 20.0762 26.8456 20.1006 26.8456 20.125V20.3933C26.8456 20.4176 26.87 20.4298 26.8944 20.4298H27.6875C27.7119 20.4298 27.7241 20.4176 27.7241 20.3933Z" fill="#1A171B"/>
<path d="M1.25874 18.8445H0.0751815C0.0507781 18.8445 0.0385742 18.8567 0.0385742 18.8811V21.1983C0.0385742 21.2226 0.0507781 21.2348 0.0751815 21.2348H0.404625C0.429028 21.2348 0.453431 21.2226 0.453431 21.1983V20.2714C0.453431 20.2592 0.465633 20.2592 0.465633 20.2592H1.25874C1.28315 20.2592 1.29535 20.2348 1.29535 20.2104V19.8933C1.29535 19.8689 1.28315 19.8567 1.25874 19.8567H0.465633C0.453431 19.8567 0.453431 19.8445 0.453431 19.8323V19.2591C0.453431 19.2469 0.465633 19.2347 0.465633 19.2347H1.25874C1.28315 19.2347 1.29535 19.2225 1.29535 19.1982V18.8811C1.29535 18.8567 1.28315 18.8445 1.25874 18.8445Z" fill="#1A171B"/>
<path fill-rule="evenodd" clip-rule="evenodd" d="M2.13716 21.2348H1.80772C1.78331 21.2348 1.75891 21.2226 1.75891 21.1983V18.8811C1.75891 18.8567 1.78331 18.8445 1.80772 18.8445H2.53982C3.05229 18.8445 3.45494 19.1494 3.45494 19.686C3.45494 20.0641 3.25972 20.3324 2.95467 20.4543C2.93027 20.4624 2.92621 20.4746 2.94248 20.4909L3.45494 21.1861C3.46715 21.2104 3.46715 21.2348 3.43054 21.2348H3.01568C2.97908 21.2348 2.95468 21.2348 2.93027 21.1861L2.49101 20.5763C2.47881 20.5397 2.45441 20.5397 2.43 20.5397H2.19817C2.18597 20.5397 2.17377 20.5397 2.17377 20.5641V21.1983C2.17377 21.2226 2.16157 21.2348 2.13716 21.2348ZM2.17377 19.2591V20.125C2.17377 20.125 2.18597 20.1372 2.19817 20.1372H2.51542C2.79606 20.1372 3.01568 19.9909 3.01568 19.686C3.01568 19.3811 2.79606 19.2347 2.51542 19.2347H2.19817C2.1819 19.2347 2.17377 19.2429 2.17377 19.2591Z" fill="#1A171B"/>
<path d="M4.28475 18.8445H3.9431C3.91869 18.8445 3.90649 18.8567 3.90649 18.8811V21.1983C3.90649 21.2226 3.91869 21.2348 3.9431 21.2348H4.28475C4.30915 21.2348 4.32135 21.2226 4.32135 21.1983V18.8811C4.32135 18.8567 4.30915 18.8445 4.28475 18.8445Z" fill="#1A171B"/>
<path d="M4.90698 18.8811V21.1983C4.90698 21.2226 4.93139 21.2348 4.95579 21.2348H6.20036C6.22476 21.2348 6.23697 21.2226 6.23697 21.1983V20.8812C6.23697 20.8568 6.22476 20.8446 6.20036 20.8446H5.34624C5.33404 20.8446 5.33404 20.8324 5.33404 20.8202V20.247C5.33404 20.2348 5.34624 20.2226 5.34624 20.2226H6.20036C6.22476 20.2226 6.23697 20.2104 6.23697 20.186V19.8689C6.23697 19.8445 6.22476 19.8323 6.20036 19.8323H5.34624C5.33811 19.8323 5.33404 19.8242 5.33404 19.8079V19.2591C5.33404 19.2469 5.34624 19.2347 5.34624 19.2347H6.20036C6.22476 19.2347 6.23697 19.2225 6.23697 19.1982V18.8811C6.23697 18.8567 6.22476 18.8445 6.20036 18.8445H4.95579C4.93139 18.8445 4.90698 18.8567 4.90698 18.8811Z" fill="#1A171B"/>
<path fill-rule="evenodd" clip-rule="evenodd" d="M8.67738 20.0397C8.67738 20.7592 8.18931 21.2348 7.51822 21.2348H6.78612C6.76172 21.2348 6.74951 21.2226 6.74951 21.1983V18.8811C6.74951 18.8567 6.76172 18.8445 6.78612 18.8445H7.51822C8.18931 18.8445 8.67738 19.3079 8.67738 20.0397ZM7.18877 20.8446H7.46941C7.85986 20.8446 8.22592 20.6373 8.22592 20.0397C8.22592 19.4421 7.85986 19.2347 7.46941 19.2347H7.18877C7.17657 19.2347 7.16437 19.2469 7.16437 19.2591V20.8202C7.16437 20.8364 7.1725 20.8446 7.18877 20.8446Z" fill="#1A171B"/>
<path fill-rule="evenodd" clip-rule="evenodd" d="M9.49483 21.2348H9.16539C9.14098 21.2348 9.11658 21.2226 9.11658 21.1983V18.8811C9.11658 18.8567 9.14098 18.8445 9.16539 18.8445H9.89749C10.41 18.8445 10.8126 19.1494 10.8126 19.686C10.8126 20.0641 10.6174 20.3324 10.3123 20.4543C10.2879 20.4624 10.2839 20.4746 10.3001 20.4909L10.8126 21.1861C10.8248 21.2104 10.8248 21.2348 10.7882 21.2348H10.3734C10.3367 21.2348 10.3123 21.2348 10.2879 21.1861L9.84868 20.5763C9.83648 20.5397 9.81207 20.5397 9.78767 20.5397H9.55584C9.54364 20.5397 9.53144 20.5397 9.53144 20.5641V21.1983C9.53144 21.2226 9.51923 21.2348 9.49483 21.2348ZM9.53144 19.2591V20.125C9.53144 20.125 9.54364 20.1372 9.55584 20.1372H9.87308C10.1537 20.1372 10.3734 19.9909 10.3734 19.686C10.3734 19.3811 10.1537 19.2347 9.87308 19.2347H9.55584C9.53957 19.2347 9.53144 19.2429 9.53144 19.2591Z" fill="#1A171B"/>
<path d="M11.6423 18.8445H11.3006C11.2762 18.8445 11.264 18.8567 11.264 18.8811V21.1983C11.264 21.2226 11.2762 21.2348 11.3006 21.2348H11.6423C11.6667 21.2348 11.6789 21.2226 11.6789 21.1983V18.8811C11.6789 18.8567 11.6667 18.8445 11.6423 18.8445Z" fill="#1A171B"/>
<path d="M13.3505 21.2958C13.8142 21.2958 14.2047 21.0762 14.3999 20.7226C14.408 20.6982 14.404 20.6819 14.3877 20.6738L14.0948 20.4786C14.0826 20.4542 14.0582 20.4664 14.046 20.4908C13.8996 20.7469 13.6556 20.8811 13.3505 20.8811C12.8747 20.8811 12.5696 20.5396 12.5696 20.0396C12.5696 19.5396 12.8747 19.1981 13.3505 19.1981C13.6556 19.1981 13.8996 19.3322 14.046 19.5884C14.0582 19.6127 14.0826 19.6127 14.0948 19.6005L14.3877 19.4054C14.404 19.3973 14.408 19.381 14.3999 19.3566C14.2047 18.9908 13.8142 18.7712 13.3505 18.7712C12.655 18.7712 12.1304 19.2835 12.1304 20.0396C12.1304 20.7957 12.655 21.2958 13.3505 21.2958Z" fill="#1A171B"/>
<path d="M15.2053 19.8201V18.8811C15.2053 18.8567 15.1931 18.8445 15.1687 18.8445H14.8392C14.8148 18.8445 14.7904 18.8567 14.7904 18.8811V21.1983C14.7904 21.2226 14.8148 21.2348 14.8392 21.2348H15.1687C15.1931 21.2348 15.2053 21.2226 15.2053 21.1983V20.247C15.2053 20.2389 15.2134 20.2348 15.2297 20.2348H16.0716C16.0838 20.2348 16.0838 20.2348 16.0838 20.247V21.1983C16.0838 21.2226 16.1082 21.2348 16.1326 21.2348H16.462C16.4864 21.2348 16.5108 21.2226 16.5108 21.1983V18.8811C16.5108 18.8567 16.4864 18.8445 16.462 18.8445H16.1326C16.1082 18.8445 16.0838 18.8567 16.0838 18.8811V19.8201C16.0838 19.8283 16.0797 19.8323 16.0716 19.8323H15.2297C15.2134 19.8323 15.2053 19.8283 15.2053 19.8201Z" fill="#1A171B"/>
<path d="M17.7432 21.2958C18.2556 21.2958 18.5607 20.9543 18.5607 20.5396C18.5607 20.1006 18.2312 19.8689 17.8896 19.8079L17.7066 19.7713C17.5235 19.7347 17.4259 19.6249 17.4259 19.4786C17.4259 19.3079 17.5479 19.1737 17.7554 19.1737C17.9262 19.1737 18.0482 19.2713 18.1214 19.4176C18.1296 19.442 18.1458 19.4501 18.1702 19.442L18.4875 19.3201C18.5119 19.3038 18.52 19.2835 18.5119 19.2591C18.3899 18.9786 18.1214 18.7834 17.7676 18.7834C17.2917 18.7834 16.9867 19.1127 16.9867 19.4908C16.9867 19.8811 17.2429 20.1372 17.6212 20.1981L17.792 20.2347C17.9994 20.2713 18.1214 20.3811 18.1214 20.5762C18.1214 20.7591 17.9872 20.8811 17.7432 20.8811C17.5479 20.8811 17.3893 20.7957 17.3283 20.6006C17.3283 20.5762 17.3039 20.564 17.2795 20.5762L16.9623 20.7104C16.9379 20.7185 16.9297 20.7348 16.9379 20.7591C17.0599 21.1006 17.3649 21.2958 17.7432 21.2958Z" fill="#1A171B"/>
<path d="M19.4271 19.8201V18.8811C19.4271 18.8567 19.4149 18.8445 19.3905 18.8445H19.0488C19.0244 18.8445 19.0122 18.8567 19.0122 18.8811V21.1983C19.0122 21.2226 19.0244 21.2348 19.0488 21.2348H19.3905C19.4149 21.2348 19.4271 21.2226 19.4271 21.1983V20.247C19.4271 20.2389 19.4352 20.2348 19.4515 20.2348H20.2812C20.3056 20.2348 20.3056 20.2348 20.3056 20.247V21.1983C20.3056 21.2226 20.33 21.2348 20.3544 21.2348H20.6838C20.7082 21.2348 20.7204 21.2226 20.7204 21.1983V18.8811C20.7204 18.8567 20.7082 18.8445 20.6838 18.8445H20.3544C20.33 18.8445 20.3056 18.8567 20.3056 18.8811V19.8201C20.3056 19.8283 20.2974 19.8323 20.2812 19.8323H19.4515C19.4352 19.8323 19.4271 19.8283 19.4271 19.8201Z" fill="#1A171B"/>
<path fill-rule="evenodd" clip-rule="evenodd" d="M22.4896 18.8933L23.1485 21.1983C23.1485 21.2226 23.1363 21.2348 23.1119 21.2348H22.7581C22.7337 21.2348 22.7174 21.2267 22.7093 21.2104L22.5872 20.7836C22.5872 20.7592 22.575 20.747 22.5506 20.747H21.6843C21.6721 20.747 21.6599 20.7592 21.6477 20.7836L21.5257 21.2104C21.5257 21.2267 21.5135 21.2348 21.4891 21.2348H21.1352C21.1027 21.2348 21.0905 21.2226 21.0986 21.1983L21.7575 18.8933C21.7697 18.8445 21.7941 18.8445 21.8185 18.8445H22.4164C22.453 18.8445 22.4774 18.8445 22.4896 18.8933ZM21.7941 20.3567H22.4408C22.4571 20.3567 22.4652 20.3486 22.4652 20.3324L22.1602 19.2591C22.152 19.2429 22.1439 19.2347 22.1358 19.2347H22.0992C22.091 19.2347 22.087 19.2429 22.087 19.2591L21.7819 20.3324C21.7738 20.3486 21.7779 20.3567 21.7941 20.3567Z" fill="#1A171B"/>
<path d="M23.8928 18.8445H23.5633C23.5389 18.8445 23.5145 18.8567 23.5145 18.8811V21.1983C23.5145 21.2226 23.5389 21.2348 23.5633 21.2348H23.8928C23.9172 21.2348 23.9416 21.2226 23.9416 21.1983V18.8811C23.9416 18.8567 23.9172 18.8445 23.8928 18.8445Z" fill="#1A171B"/>
<path d="M25.9061 20.4665L25.0154 18.8811C24.991 18.8445 24.9788 18.8445 24.9422 18.8445H24.564C24.5396 18.8445 24.5273 18.8567 24.5273 18.8811V21.1983C24.5273 21.2226 24.5396 21.2348 24.564 21.2348H24.9056C24.93 21.2348 24.9422 21.2226 24.9422 21.1983V19.625C24.9422 19.6006 24.9544 19.5884 24.9666 19.6128L25.8573 21.1861C25.8817 21.2226 25.9061 21.2348 25.9427 21.2348H26.3088C26.3332 21.2348 26.3454 21.2226 26.3454 21.1983V18.8811C26.3454 18.8567 26.3332 18.8445 26.3088 18.8445H25.9793C25.9549 18.8445 25.9305 18.8567 25.9305 18.8811V20.4543C25.9305 20.4787 25.9183 20.4787 25.9061 20.4665Z" fill="#1A171B"/>
<path d="M28.6514 21.1981V20.6005C28.6514 20.564 28.6514 20.5518 28.6636 20.5396L28.8466 20.2469C28.8588 20.2347 28.871 20.2347 28.8833 20.2469L29.3347 21.1981C29.3428 21.2225 29.3591 21.2347 29.3835 21.2347H29.7618C29.7984 21.2347 29.8106 21.2225 29.7984 21.1859L29.1761 19.9054C29.1517 19.881 29.1517 19.8688 29.1761 19.8322L29.774 18.8931C29.7984 18.8566 29.7862 18.8444 29.7496 18.8444H29.3469C29.3306 18.8362 29.3144 18.8444 29.2981 18.8687L28.6758 19.881C28.6636 19.8932 28.6514 19.8932 28.6514 19.8688V18.8809C28.6514 18.8566 28.627 18.8444 28.6026 18.8444H28.2732C28.2488 18.8444 28.2244 18.8566 28.2244 18.8809V21.1981C28.2244 21.2225 28.2488 21.2347 28.2732 21.2347H28.6026C28.627 21.2347 28.6514 21.2225 28.6514 21.1981Z" fill="#1A171B"/>
<path fill-rule="evenodd" clip-rule="evenodd" d="M30.5671 21.2348H30.2377C30.2132 21.2348 30.1888 21.2226 30.1888 21.1983V18.8811C30.1888 18.8567 30.2132 18.8445 30.2377 18.8445H30.9698C31.4822 18.8445 31.8849 19.1494 31.8849 19.686C31.8849 20.0641 31.6896 20.3324 31.3846 20.4543C31.3602 20.4543 31.3602 20.4787 31.3724 20.4909L31.8849 21.1861C31.9093 21.2104 31.8971 21.2348 31.8605 21.2348H31.4456C31.409 21.2348 31.3968 21.2348 31.3724 21.1861L30.9209 20.5763C30.9087 20.5397 30.8965 20.5397 30.8599 20.5397H30.6281C30.6159 20.5397 30.6159 20.5397 30.6159 20.5641V21.1983C30.6159 21.2226 30.5915 21.2348 30.5671 21.2348ZM30.6159 19.2591V20.125C30.6159 20.125 30.6159 20.1372 30.6281 20.1372H30.9453C31.226 20.1372 31.4456 19.9909 31.4456 19.686C31.4456 19.3811 31.226 19.2347 30.9453 19.2347H30.6281C30.62 19.2347 30.6159 19.2429 30.6159 19.2591Z" fill="#1A171B"/>
<path d="M32.3364 18.8811V21.1983C32.3364 21.2226 32.3608 21.2348 32.3852 21.2348H33.6176C33.642 21.2348 33.6664 21.2226 33.6664 21.1983V20.8812C33.6664 20.8568 33.642 20.8446 33.6176 20.8446H32.7757C32.7635 20.8446 32.7513 20.8324 32.7513 20.8202V20.247C32.7513 20.2348 32.7635 20.2226 32.7757 20.2226H33.6176C33.642 20.2226 33.6664 20.2104 33.6664 20.186V19.8689C33.6664 19.8445 33.642 19.8323 33.6176 19.8323H32.7757C32.7594 19.8323 32.7513 19.8242 32.7513 19.8079V19.2591C32.7513 19.2469 32.7635 19.2347 32.7757 19.2347H33.6176C33.642 19.2347 33.6664 19.2225 33.6664 19.1982V18.8811C33.6664 18.8567 33.642 18.8445 33.6176 18.8445H32.3852C32.3608 18.8445 32.3364 18.8567 32.3364 18.8811Z" fill="#1A171B"/>
<path d="M35.0085 21.2958C35.5332 21.2958 35.8749 20.9543 35.8749 20.3933V18.8811C35.8749 18.8567 35.8505 18.8445 35.8261 18.8445H35.4966C35.4722 18.8445 35.46 18.8567 35.46 18.8811V20.3689C35.46 20.7104 35.2892 20.8934 35.0085 20.8934C34.7279 20.8934 34.5693 20.7104 34.5693 20.3689V18.8811C34.5693 18.8567 34.5571 18.8445 34.5327 18.8445H34.191C34.1666 18.8445 34.1544 18.8567 34.1544 18.8811V20.3933C34.1544 20.9543 34.4839 21.2958 35.0085 21.2958Z" fill="#1A171B"/>
<path d="M36.3264 21.2348H38.0102C38.0346 21.2348 38.0468 21.2226 38.0468 21.1983V20.8812C38.0468 20.8568 38.0346 20.8446 38.0102 20.8446H36.9731C36.9487 20.8446 36.9446 20.8283 36.9609 20.7958L37.9736 18.9299C37.998 18.8811 37.9736 18.8445 37.9248 18.8445H36.302C36.2776 18.8445 36.2654 18.8567 36.2654 18.8811V19.1982C36.2654 19.2225 36.2776 19.2347 36.302 19.2347H37.2781C37.3025 19.2347 37.3147 19.2469 37.3025 19.2713L36.2776 21.1495C36.2532 21.1861 36.2898 21.2348 36.3264 21.2348Z" fill="#1A171B"/>
<path fill-rule="evenodd" clip-rule="evenodd" d="M38.425 21.1983V18.8811C38.425 18.8567 38.4495 18.8445 38.4739 18.8445H39.2548C39.7184 18.8445 39.9747 19.125 39.9747 19.4909C39.9747 19.7104 39.8648 19.8811 39.7062 19.9787C39.6818 19.9909 39.694 20.0153 39.7184 20.0275C39.9014 20.125 40.0113 20.308 40.0113 20.5641C40.0113 20.9421 39.7672 21.2348 39.2792 21.2348H38.4739C38.4495 21.2348 38.425 21.2226 38.425 21.1983ZM38.8521 19.2591V19.8079C38.8521 19.8242 38.8562 19.8323 38.8643 19.8323H39.1938C39.4134 19.8323 39.5354 19.7104 39.5354 19.5396C39.5354 19.3567 39.4134 19.2347 39.1938 19.2347H38.8643C38.8562 19.2347 38.8521 19.2429 38.8521 19.2591ZM38.8521 20.247V20.8202C38.8521 20.8324 38.8521 20.8446 38.8643 20.8446H39.2304C39.45 20.8446 39.572 20.7104 39.572 20.5275C39.572 20.3446 39.45 20.2226 39.2304 20.2226H38.8643C38.8562 20.2226 38.8521 20.2307 38.8521 20.247Z" fill="#1A171B"/>
<path d="M40.4871 18.8811V21.1983C40.4871 21.2226 40.4993 21.2348 40.5237 21.2348H41.7682C41.7926 21.2348 41.817 21.2226 41.817 21.1983V20.8812C41.817 20.8568 41.7926 20.8446 41.7682 20.8446H40.9263C40.9141 20.8446 40.9019 20.8324 40.9019 20.8202V20.247C40.9019 20.2348 40.9141 20.2226 40.9263 20.2226H41.7682C41.7926 20.2226 41.817 20.2104 41.817 20.186V19.8689C41.817 19.8445 41.7926 19.8323 41.7682 19.8323H40.9263C40.91 19.8323 40.9019 19.8242 40.9019 19.8079V19.2591C40.9019 19.2469 40.9141 19.2347 40.9263 19.2347H41.7682C41.7926 19.2347 41.817 19.2225 41.817 19.1982V18.8811C41.817 18.8567 41.7926 18.8445 41.7682 18.8445H40.5237C40.4993 18.8445 40.4871 18.8567 40.4871 18.8811Z" fill="#1A171B"/>
<path fill-rule="evenodd" clip-rule="evenodd" d="M42.6956 21.2348H42.3662C42.3418 21.2348 42.3174 21.2226 42.3174 21.1983V18.8811C42.3174 18.8567 42.3418 18.8445 42.3662 18.8445H43.0983C43.6108 18.8445 44.0134 19.1494 44.0134 19.686C44.0134 20.0641 43.8182 20.3324 43.5131 20.4543C43.4887 20.4543 43.4887 20.4787 43.5009 20.4909L44.0134 21.1861C44.0378 21.2104 44.0256 21.2348 43.989 21.2348H43.5742C43.5375 21.2348 43.5253 21.2348 43.5009 21.1861L43.0495 20.5763C43.0373 20.5397 43.0251 20.5397 42.9885 20.5397H42.7566C42.7444 20.5397 42.7444 20.5397 42.7444 20.5641V21.1983C42.7444 21.2226 42.72 21.2348 42.6956 21.2348ZM42.7444 19.2591V20.125C42.7444 20.125 42.7444 20.1372 42.7566 20.1372H43.0739C43.3545 20.1372 43.5742 19.9909 43.5742 19.686C43.5742 19.3811 43.3545 19.2347 43.0739 19.2347H42.7566C42.7485 19.2347 42.7444 19.2429 42.7444 19.2591Z" fill="#1A171B"/>
<path d="M45.6849 20.3689H46.2584C46.2706 20.3689 46.2706 20.3811 46.2706 20.3933C46.1852 20.6982 45.9412 20.8811 45.5751 20.8811C45.0871 20.8811 44.7698 20.5396 44.7698 20.0396C44.7698 19.5396 45.0871 19.1981 45.5751 19.1981C45.8436 19.1981 46.0754 19.2957 46.2218 19.4908C46.234 19.5152 46.2584 19.5152 46.2828 19.503L46.5513 19.2957C46.5757 19.2794 46.5797 19.2591 46.5635 19.2347C46.3438 18.9542 45.99 18.7712 45.5751 18.7712C44.8552 18.7712 44.3184 19.2835 44.3184 20.0396C44.3184 20.7957 44.8552 21.2958 45.5751 21.2958C46.2706 21.2958 46.7465 20.8079 46.7709 20.0152C46.7709 19.9908 46.7465 19.9786 46.7221 19.9786H45.6849C45.6605 19.9786 45.6483 19.9908 45.6483 20.0152V20.3323C45.6483 20.3567 45.6605 20.3689 45.6849 20.3689Z" fill="#1A171B"/>
<path fill-rule="evenodd" clip-rule="evenodd" d="M13.5092 16.7955V14.4784C13.5092 14.4662 13.5336 14.4418 13.558 14.4418H14.3389C14.8025 14.4418 15.0588 14.7223 15.0588 15.0881C15.0588 15.3077 14.949 15.4784 14.7903 15.5882C14.7659 15.6004 14.7781 15.6126 14.8025 15.6248C14.9856 15.7223 15.0954 15.9175 15.0954 16.1614C15.0954 16.5516 14.8513 16.8443 14.3633 16.8443H13.558C13.5336 16.8443 13.5092 16.8199 13.5092 16.7955ZM13.9362 14.8564V15.4174C13.9362 15.4256 13.9403 15.4337 13.9484 15.4418H14.2779C14.4975 15.4418 14.6195 15.3199 14.6195 15.1369C14.6195 14.954 14.4975 14.8442 14.2779 14.8442H13.9484C13.9403 14.8442 13.9362 14.8483 13.9362 14.8564ZM13.9362 15.8443V16.4175C13.9362 16.4297 13.9362 16.4419 13.9484 16.4419H14.3145C14.5341 16.4419 14.6561 16.3199 14.6561 16.137C14.6561 15.954 14.5341 15.8199 14.3145 15.8199H13.9484C13.9403 15.8199 13.9362 15.828 13.9362 15.8443Z" fill="#1A171B"/>
<path d="M15.6201 14.4784V16.7955C15.6201 16.8199 15.6445 16.8443 15.6689 16.8443H16.9135C16.9379 16.8443 16.9501 16.8199 16.9501 16.7955V16.4785C16.9501 16.4541 16.9379 16.4419 16.9135 16.4419H16.0594C16.0472 16.4419 16.0472 16.4297 16.0472 16.4175V15.8443C16.0472 15.8321 16.0472 15.8199 16.0594 15.8199H16.9135C16.9379 15.8199 16.9501 15.8077 16.9501 15.7833V15.4784C16.9501 15.454 16.9379 15.4296 16.9135 15.4296H16.0594C16.0512 15.4296 16.0472 15.4256 16.0472 15.4174V14.8564C16.0472 14.8442 16.0472 14.8442 16.0594 14.8442H16.9135C16.9379 14.8442 16.9501 14.8198 16.9501 14.7954V14.4784C16.9501 14.4662 16.9379 14.4418 16.9135 14.4418H15.6689C15.6445 14.4418 15.6201 14.4662 15.6201 14.4784Z" fill="#1A171B"/>
<path d="M17.4016 16.8443H19.0854C19.1098 16.8443 19.122 16.8199 19.122 16.8077V16.4785C19.122 16.4541 19.1098 16.4419 19.0854 16.4419H18.0483C18.0239 16.4419 18.0198 16.4297 18.0361 16.4053L19.0488 14.5393C19.0732 14.4906 19.0488 14.4418 19 14.4418H17.3772C17.3528 14.4418 17.3406 14.4662 17.3406 14.4784V14.7954C17.3406 14.8198 17.3528 14.8442 17.3772 14.8442H18.3533C18.3777 14.8442 18.3899 14.8442 18.3777 14.8808L17.3528 16.7468C17.3284 16.7955 17.365 16.8443 17.4016 16.8443Z" fill="#1A171B"/>
<path d="M19.9395 14.4418H19.5979C19.5735 14.4418 19.5613 14.4662 19.5613 14.4784V16.7955C19.5613 16.8199 19.5735 16.8443 19.5979 16.8443H19.9395C19.9639 16.8443 19.9761 16.8199 19.9761 16.7955V14.4784C19.9761 14.4662 19.9639 14.4418 19.9395 14.4418Z" fill="#1A171B"/>
<path fill-rule="evenodd" clip-rule="evenodd" d="M20.9889 16.8443H20.6594C20.635 16.8443 20.6228 16.8199 20.6228 16.7955V14.4784C20.6228 14.4662 20.635 14.4418 20.6594 14.4418H21.3915C21.904 14.4418 22.3066 14.7589 22.3066 15.2955C22.3066 15.6735 22.1114 15.9296 21.8064 16.0516C21.782 16.0597 21.7779 16.076 21.7942 16.1004L22.3066 16.7833C22.331 16.8199 22.3188 16.8443 22.2822 16.8443H21.8796C21.8308 16.8443 21.8186 16.8321 21.7942 16.7955L21.3549 16.1736C21.3305 16.1492 21.3183 16.137 21.2817 16.137H21.0621C21.0499 16.137 21.0377 16.1492 21.0377 16.1614V16.7955C21.0377 16.8199 21.0133 16.8443 20.9889 16.8443ZM21.0377 14.8564V15.7223C21.0377 15.7345 21.0377 15.7467 21.0621 15.7467H21.3671C21.6477 15.7467 21.8674 15.6004 21.8674 15.2955C21.8674 14.9906 21.6477 14.8442 21.3671 14.8442H21.0621C21.0458 14.8442 21.0377 14.8483 21.0377 14.8564Z" fill="#1A171B"/>
<path d="M23.234 16.7955V16.198C23.234 16.1736 23.2462 16.1492 23.2462 16.137L23.4414 15.8443C23.4414 15.8321 23.4658 15.8321 23.4658 15.8565L23.9172 16.8077C23.9335 16.8321 23.9538 16.8443 23.9783 16.8443H24.3565C24.3809 16.8443 24.4053 16.8199 24.3809 16.7955L23.7586 15.515C23.7464 15.4784 23.7464 15.4662 23.7586 15.4418L24.3687 14.4906C24.3809 14.4662 24.3687 14.4418 24.3443 14.4418H23.9416C23.9172 14.4418 23.901 14.4499 23.8928 14.4662L23.2584 15.4784C23.2462 15.5028 23.234 15.4906 23.234 15.4784V14.4784C23.234 14.4662 23.2218 14.4418 23.1973 14.4418H22.8557C22.8313 14.4418 22.8191 14.4662 22.8191 14.4784V16.7955C22.8191 16.8199 22.8313 16.8443 22.8557 16.8443H23.1973C23.2218 16.8443 23.234 16.8199 23.234 16.7955Z" fill="#1A171B"/>
<path d="M25.4912 16.9054C26.0037 16.9054 26.3087 16.5517 26.3087 16.1492C26.3087 15.698 25.9793 15.4785 25.6376 15.4053L25.4546 15.3809C25.2716 15.3443 25.174 15.2224 25.174 15.076C25.174 14.9053 25.296 14.7833 25.5034 14.7833C25.662 14.7833 25.7963 14.8687 25.8573 15.0272C25.8735 15.0516 25.8939 15.0557 25.9183 15.0394L26.2355 14.9175C26.2599 14.9093 26.2681 14.8931 26.2599 14.8687C26.1379 14.576 25.8695 14.3809 25.5034 14.3809C25.0398 14.3809 24.7347 14.7101 24.7347 15.0882C24.7347 15.4785 24.991 15.7346 25.357 15.8078L25.5278 15.8321C25.7475 15.8809 25.8695 15.9785 25.8695 16.1736C25.8695 16.3566 25.7353 16.4907 25.4912 16.4907C25.296 16.4907 25.1374 16.3932 25.0764 16.2102C25.0764 16.1858 25.052 16.1736 25.0276 16.1858L24.7103 16.3078C24.6859 16.324 24.6778 16.3444 24.6859 16.3688C24.8079 16.698 25.113 16.9054 25.4912 16.9054Z" fill="#1A171B"/>
<path fill-rule="evenodd" clip-rule="evenodd" d="M27.9804 14.4906L28.6514 16.7955C28.6514 16.8281 28.6392 16.8443 28.6148 16.8443H28.261C28.2366 16.8443 28.2203 16.8321 28.2122 16.8077L28.0902 16.3809C28.0902 16.3565 28.078 16.3565 28.0536 16.3565H27.1872C27.175 16.3565 27.1628 16.3565 27.1506 16.3809L27.0286 16.8077C27.0205 16.8321 27.0083 16.8443 26.992 16.8443H26.6382C26.6056 16.8443 26.5934 16.8281 26.6016 16.7955L27.2605 14.4906C27.2727 14.454 27.2849 14.4418 27.3215 14.4418H27.9193C27.956 14.4418 27.9804 14.454 27.9804 14.4906ZM27.2971 15.954H27.9437C27.96 15.9622 27.9682 15.954 27.9682 15.9296L27.6631 14.8686C27.655 14.8524 27.6468 14.8442 27.6387 14.8442H27.6021C27.594 14.8442 27.5899 14.8524 27.5899 14.8686L27.2849 15.9296C27.2767 15.954 27.2808 15.9622 27.2971 15.954Z" fill="#1A171B"/>
<path d="M29.1151 16.8443H29.4567C29.4811 16.8443 29.4933 16.8199 29.4933 16.8077V15.1857C29.4933 15.1735 29.5055 15.1613 29.5177 15.1857L30.0912 16.1004C30.1278 16.1492 30.1644 16.1492 30.201 16.1004L30.7745 15.1857C30.7867 15.1613 30.7989 15.1735 30.7989 15.1857V16.8077C30.7989 16.8199 30.8111 16.8443 30.8355 16.8443H31.1772C31.2016 16.8443 31.2138 16.8199 31.2138 16.8077V14.4784C31.2138 14.4662 31.2016 14.4418 31.1772 14.4418H30.7745C30.7501 14.4418 30.7339 14.4499 30.7257 14.4662L30.1644 15.4174C30.1522 15.4418 30.14 15.4418 30.1278 15.4174L29.5666 14.4662C29.5584 14.4499 29.5422 14.4418 29.5177 14.4418H29.1151C29.0907 14.4418 29.0785 14.4662 29.0785 14.4784V16.8077C29.0785 16.8199 29.0907 16.8443 29.1151 16.8443Z" fill="#1A171B"/>
<path d="M33.2393 14.4418H31.6775C31.6531 14.4418 31.6287 14.4662 31.6287 14.4784V14.7954C31.6287 14.8198 31.6531 14.8442 31.6775 14.8442H32.2265C32.2387 14.8442 32.251 14.8442 32.251 14.8564V16.7955C32.251 16.8199 32.2632 16.8443 32.2876 16.8443H32.6292C32.6536 16.8443 32.6658 16.8199 32.6658 16.7955V14.8564C32.6658 14.8483 32.6739 14.8442 32.6902 14.8442H33.2393C33.2637 14.8442 33.2881 14.8198 33.2881 14.7954V14.4784C33.2881 14.4662 33.2637 14.4418 33.2393 14.4418Z" fill="#1A171B"/>
</svg>
